<svg xmlns="http://www.w3.org/2000/svg" width="240" height="240" viewBox="0 0 160 160" shape-rendering="crispEdges" role="img"><rect x="0" y="0" width="160" height="160" fill="#dce7e6"/><rect x="8" y="8" width="144" height="144" fill="#f9f4e6"/><rect x="12" y="12" width="136" height="136" fill="#dce7e6"/><rect x="20" y="136" width="120" height="8" fill="#b6c7c6"/><rect x="28" y="57" width="104" height="70" fill="#25314b"/><rect x="32" y="61" width="96" height="62" fill="#efc95c"/><rect x="28" y="50" width="104" height="17" fill="#25314b"/><rect x="32" y="54" width="96" height="9" fill="#df7766"/><rect x="74" y="54" width="12" height="69" fill="#fff3d4"/><rect x="42" y="78" width="26" height="26" fill="#25314b"/><rect x="46" y="82" width="18" height="18" fill="#d9e7ec"/><rect x="51" y="87" width="8" height="8" fill="#70b89c"/><rect x="96" y="75" width="18" height="6" fill="#25314b"/><rect x="96" y="87" width="18" height="6" fill="#25314b"/><rect x="96" y="99" width="12" height="6" fill="#25314b"/></svg>
